<svg xmlns="http://www.w3.org/2000/svg" width="155" height="50" viewBox="0 0 155 50">
    <defs>
        <linearGradient id="a" x1="50%" x2="50%" y1="0%" y2="100%">
            <stop stop-color="#D7516A" offset="0%"></stop>
            <stop stop-color="#479CC3" offset="100%"></stop>
        </linearGradient>
    </defs>
    <g>
        <path fill="#1C313B" d="M90.34 32.26a4 4 0 0 0 2.43-.67 3.65 3.65 0 0 0 1.27-2.2h-2.98l.48-2.81h6.24l-.36 2.35c-.32 2.1-1.14 3.69-2.46 4.79a7.18 7.18 0 0 1-4.74 1.64c-2 0-3.58-.66-4.75-1.98-1.17-1.32-1.75-3.1-1.75-5.32 0-1.61.24-3.08.7-4.41a8.43 8.43 0 0 1 4.49-5.15 6.94 6.94 0 0 1 2.95-.66c1.88 0 3.38.54 4.48 1.63a5.98 5.98 0 0 1 1.7 4.35l-3.3.26c-.15-2.16-1.1-3.24-2.86-3.24-1.28 0-2.39.64-3.32 1.9a7.7 7.7 0 0 0-1.4 4.7c0 1.57.27 2.76.83 3.59a2.69 2.69 0 0 0 2.35 1.23zM98.9 35l2.23-12.72h3.24L102.13 35h-3.24zm2.52-14.57l.53-2.95h3.12l-.53 2.95h-3.12zm3.77 10.2l2.92-.55c.07.9.32 1.54.76 1.93.44.4 1.07.59 1.88.59 1.44 0 2.16-.45 2.16-1.34 0-.3-.16-.58-.5-.82-.34-.24-1.17-.6-2.5-1.08-1.4-.5-2.36-1-2.86-1.54a2.87 2.87 0 0 1-.76-2.06c0-.96.41-1.84 1.24-2.64.82-.8 2.06-1.2 3.7-1.2 1.5 0 2.7.38 3.6 1.15.88.77 1.39 1.75 1.52 2.95l-2.79.46a2.62 2.62 0 0 0-.83-1.4 2.4 2.4 0 0 0-1.62-.52c-.62 0-1.1.11-1.42.34-.33.22-.5.48-.5.76s.2.53.62.76c.4.23 1.3.6 2.7 1.1 1.34.47 2.24.98 2.7 1.53.47.54.7 1.24.7 2.09 0 1.16-.46 2.16-1.39 2.98a5.5 5.5 0 0 1-3.79 1.24c-1.8 0-3.18-.44-4.1-1.32a4.64 4.64 0 0 1-1.44-3.4zm20.44-.72l2.86 1.08c-.94 2.91-2.91 4.37-5.9 4.37a5 5 0 0 1-3.74-1.45 5.29 5.29 0 0 1-1.42-3.88c0-2.48.62-4.45 1.87-5.91a5.92 5.92 0 0 1 4.7-2.2c1.65 0 2.9.48 3.76 1.44a5.45 5.45 0 0 1 1.28 3.77l-2.93.21a2.9 2.9 0 0 0-.49-1.86c-.36-.5-.94-.75-1.74-.75-1 0-1.81.47-2.41 1.41a6.6 6.6 0 0 0-.9 3.6c0 1.84.77 2.76 2.3 2.76.42 0 .78-.07 1.1-.21.3-.15.57-.37.79-.67a5.62 5.62 0 0 0 .87-1.7zm5.02.46l1.42-8.09h3.19l-1.37 7.8c-.27 1.52.24 2.28 1.54 2.28 1.68 0 2.64-.69 2.88-2.06l1.39-8.02h3.21L140.67 35h-3.07l.22-1.22h-.05a4.56 4.56 0 0 1-3.5 1.58c-3.01 0-4.22-1.66-3.63-5zm12.98.26l2.93-.55c.07.9.32 1.54.76 1.93.44.4 1.07.59 1.88.59 1.44 0 2.16-.45 2.16-1.34 0-.3-.17-.58-.5-.82-.34-.24-1.17-.6-2.5-1.08-1.4-.5-2.36-1-2.87-1.54a2.87 2.87 0 0 1-.75-2.06c0-.96.41-1.84 1.23-2.64.83-.8 2.06-1.2 3.71-1.2 1.5 0 2.7.38 3.59 1.15.89.77 1.4 1.75 1.52 2.95l-2.78.46a2.62 2.62 0 0 0-.83-1.4 2.4 2.4 0 0 0-1.62-.52c-.62 0-1.1.11-1.43.34-.32.22-.49.48-.49.76s.2.53.61.76c.41.23 1.31.6 2.7 1.1 1.35.47 2.25.98 2.72 1.53.46.54.7 1.24.7 2.09 0 1.16-.47 2.16-1.4 2.98a5.5 5.5 0 0 1-3.8 1.24c-1.8 0-3.17-.44-4.1-1.32a4.64 4.64 0 0 1-1.44-3.4z"></path>
        <path fill="url(#a)" d="M17.01 19.25c-2.1-2.34-4.48-5-6.65-7.34a25 25 0 0 1 38.98-4.58L67 25 49.34 42.68a25 25 0 0 1-38.9-4.48c2.46-2.5 5.23-5.35 7.51-7.69L0 35V15l17.01 4.25zM50 25a3.33 3.33 0 1 0 0-6.67A3.33 3.33 0 0 0 50 25z"></path>
    </g>
</svg>