<svg xmlns="http://www.w3.org/2000/svg" width="230" height="40" viewBox="0 0 230 40">
    <path fill="#1C313B" d="M19.38 31.61h-7.47v-7.48h7.49v7.46a11.93 11.93 0 0 0 11.07-16.26 11.24 11.24 0 0 0-6.7-6.7A11.93 11.93 0 0 0 7.5 19.72H0A19.45 19.45 0 0 1 25.56 1.3 18.74 18.74 0 0 1 37.8 13.54 19.45 19.45 0 0 1 19.38 39.1v-7.49zm-7.47 5.75H6.17v-5.75h5.74v5.75zm-5.74-5.75H1.35V26.8h4.81v4.82zM69 11.54c1.21.82 2.16 2 2.83 3.48.67 1.48 1 3.23 1 5.2a13 13 0 0 1-1 5.27 8.49 8.49 0 0 1-2.83 3.58c-2.23 1.62-5 2.44-8.21 2.44h-7.03V9.22h7.03c3.22 0 5.99.78 8.2 2.32zM57.88 13v14.76h2.23c2.5 0 4.5-.5 5.97-1.47 1.7-1.11 2.57-3.15 2.57-6.06 0-2.82-.87-4.77-2.57-5.8-1.53-.95-3.55-1.43-6-1.43h-2.2zm19.85-4.04c.68 0 1.26.24 1.73.71.47.45.71 1.02.71 1.7 0 .67-.24 1.26-.7 1.73-.48.47-1.06.71-1.74.71-.67 0-1.25-.24-1.73-.71a2.37 2.37 0 0 1-.7-1.73c0-.68.23-1.25.7-1.7.48-.47 1.06-.71 1.73-.71zM75.72 31.5v-15.7h3.95v15.7h-3.95zm18.3-14.38V15.8h3.88v14.26c0 2.35-.7 4.27-2.11 5.7-1.4 1.43-3.3 2.15-5.64 2.15a8 8 0 0 1-4.4-1.14 9.6 9.6 0 0 1-2.64-2.37l-.07-.1 2.69-2.59c1.39 1.88 2.53 2.6 4.36 2.6 1.19 0 2.14-.35 2.83-1.05.69-.7 1.03-1.7 1.03-3v-.37a6.14 6.14 0 0 1-3.9 1.26 7.2 7.2 0 0 1-5.41-2.2 8.04 8.04 0 0 1-2.1-5.63c0-2.27.72-4.17 2.13-5.64a7.09 7.09 0 0 1 5.39-2.24c1.43 0 2.76.62 3.96 1.68zm-1.04 9.27a4.49 4.49 0 0 0 1.04-3.07c0-1.28-.35-2.32-1.04-3.11a3.4 3.4 0 0 0-2.71-1.17 3.4 3.4 0 0 0-2.7 1.17 4.6 4.6 0 0 0-1.02 3.1c0 1.27.35 2.3 1.02 3.08a3.36 3.36 0 0 0 2.7 1.16 3.4 3.4 0 0 0 2.7-1.16zm8.3 5.11v-15.7h3.95v15.7h-3.95zm2.02-22.56c.67 0 1.25.24 1.73.71.47.45.7 1.02.7 1.7 0 .67-.23 1.26-.7 1.73-.48.47-1.06.71-1.73.71-.68 0-1.26-.24-1.73-.71a2.36 2.36 0 0 1-.71-1.73c0-.68.24-1.25.71-1.7.47-.47 1.05-.71 1.73-.71zm10.6 2.62v4.24h3.67v3.6h-3.68v5.97c0 1.04.16 1.74.46 2.07.3.33.93.5 1.87.5l1.35-.08v3.6l-.18.01c-.63.04-1.28.06-1.92.06-2.01 0-3.45-.42-4.25-1.27-.8-.83-1.22-2.3-1.22-4.33V19.4h-2.25v-3.6H110v-4.24h3.9zm22.2 19.94V9.22h3.94v22.3h-3.95zm43.85-5.61l2.57 2.47a7.83 7.83 0 0 1-6.72 3.5 7.58 7.58 0 0 1-5.6-2.35 8.07 8.07 0 0 1-2.3-5.87c0-2.34.78-4.3 2.3-5.85a7.6 7.6 0 0 1 5.6-2.35c2.59 0 4.76 1.03 6.46 3.24l-2.61 2.5c-1.15-1.35-2.5-2.14-3.76-2.14-1.17 0-2.1.42-2.85 1.29a4.89 4.89 0 0 0-1.13 3.3c0 1.34.39 2.46 1.14 3.33a3.6 3.6 0 0 0 2.87 1.3c.81 0 1.5-.18 2.05-.53a11.1 11.1 0 0 0 1.98-1.84zm16.22-7.9c.55.78.97 1.64 1.24 2.56.28.92.42 1.9.42 2.92l-.04 1.44h-10.46c.1 1 .47 1.8 1.12 2.39.7.63 1.6.95 2.7.95.74 0 1.4-.14 2-.43.38-.2.75-.48 1.14-.85.3-.3.65-.62.89-.9l2.57 2.47-.09.11a7.87 7.87 0 0 1-6.5 3.2 7.57 7.57 0 0 1-5.7-2.25 8.14 8.14 0 0 1-2.17-5.86c0-2.3.66-4.29 1.98-5.88a6.7 6.7 0 0 1 5.36-2.42 7.4 7.4 0 0 1 3.27.69c.94.46 1.7 1.09 2.27 1.87zm-8.64 3.7h6.1a2.95 2.95 0 0 0-.8-1.84c-.5-.54-1.24-.81-2.2-.81-.84 0-1.53.27-2.07.8a3.9 3.9 0 0 0-1.03 1.85zm23.8-4.71c1.21 1.03 1.82 2.52 1.82 4.43v10.1h-3.89v-1.3a6.63 6.63 0 0 1-4.19 1.64c-1.5 0-2.78-.43-3.8-1.3a4.52 4.52 0 0 1-1.54-3.56c0-1.68.6-3 1.81-3.92a7.64 7.64 0 0 1 4.76-1.38 10 10 0 0 1 2.9.45v-.76c0-.7-.25-1.25-.78-1.68a3.1 3.1 0 0 0-2.03-.66c-1.54 0-2.7.58-3.74 2.24l-2.53-2.43-.04-.04c.64-1.13 1.65-2 2.68-2.52a8 8 0 0 1 3.66-.85c2.06 0 3.72.52 4.92 1.54zm-7 8.52c-.44.3-.65.71-.65 1.25 0 .47.17.85.53 1.14.37.3.9.45 1.58.45 1.4 0 2.55-.4 3.41-1.2v-1.54a8.82 8.82 0 0 0-3-.57c-.8 0-1.43.16-1.88.47zm24.02-8.21c1.1 1.22 1.65 2.94 1.65 5.11v9.1h-3.95v-9.1c0-1.03-.25-1.87-.76-2.47-.5-.6-1.18-.9-2.07-.9-1.02 0-1.78.33-2.34 1a4.3 4.3 0 0 0-.84 2.82v8.65h-3.95v-15.7h3.87v.98a5.35 5.35 0 0 1 3.8-1.34c1.94 0 3.49.62 4.59 1.85zm-97.22-.31c1.2 1.03 1.82 2.52 1.82 4.43v10.1h-3.9v-1.3a6.63 6.63 0 0 1-4.18 1.64c-1.5 0-2.79-.43-3.82-1.3a4.52 4.52 0 0 1-1.53-3.56c0-1.68.61-3 1.81-3.92a7.64 7.64 0 0 1 4.76-1.38 10 10 0 0 1 2.9.45v-.76c0-.7-.25-1.25-.77-1.68a3.1 3.1 0 0 0-2.04-.66c-1.54 0-2.7.58-3.74 2.24l-2.53-2.43-.04-.04c.65-1.13 1.66-2 2.68-2.52a8 8 0 0 1 3.66-.85c2.07 0 3.72.52 4.92 1.54zm-7.02 8.52c-.43.3-.64.71-.64 1.25 0 .47.18.85.53 1.14.37.3.9.45 1.58.45 1.41 0 2.56-.4 3.42-1.2v-1.54a8.82 8.82 0 0 0-3-.57c-.8 0-1.44.16-1.89.47zm30.27 6.34a11.5 11.5 0 0 1-11.5-11.5 11.5 11.5 0 0 1 11.5-11.48 11.5 11.5 0 0 1 11.49 11.49 11.5 11.5 0 0 1-11.5 11.49zm0-18.93a7.45 7.45 0 1 0 .01 14.9 7.45 7.45 0 0 0-.01-14.9z"></path>
</svg>