<svg xmlns="http://www.w3.org/2000/svg" width="32" height="32" viewBox="0 0 32 32">
    <path fill="#1C313B" d="M16 0a16 16 0 0 0-5.06 31.18c.8.15 1.1-.34 1.1-.77L12 27.7c-4.45.97-5.39-2.15-5.39-2.15-.72-1.84-1.77-2.34-1.77-2.34-1.46-.99.1-.97.1-.97 1.61.11 2.46 1.65 2.46 1.65 1.42 2.45 3.74 1.74 4.65 1.33a3.42 3.42 0 0 1 1.02-2.14c-3.55-.4-7.29-1.78-7.29-7.9 0-1.75.62-3.18 1.65-4.3-.17-.4-.72-2.03.16-4.23 0 0 1.34-.43 4.4 1.64a15.32 15.32 0 0 1 8 0c3.06-2.07 4.4-1.64 4.4-1.64.87 2.2.33 3.83.16 4.23a6.17 6.17 0 0 1 1.65 4.3c0 6.14-3.75 7.5-7.3 7.89.56.5 1.08 1.47 1.08 2.96l-.02 4.4c0 .42.29.92 1.1.76A16 16 0 0 0 16 0"></path>
</svg>