<svg xmlns="http://www.w3.org/2000/svg" viewBox="0 0 218 38" width="218" height="38">
    <path fill="#1C313B" d="M31.84 8.27c.8.47 1.46 1.6 1.46 2.54v15.84c0 .93-.66 2.08-1.46 2.54L18.1 37.11c-.8.47-2.12.47-2.93 0L1.46 29.2A3.25 3.25 0 0 1 0 26.65V10.81c0-.93.66-2.07 1.46-2.54L15.18.35c.81-.47 2.13-.47 2.93 0l13.73 7.92zm-4.6 11.13v-1.33a.7.7 0 0 0-.7-.7h-4.4a4.11 4.11 0 0 1-4.12-4.12v-4.4a.7.7 0 0 0-.7-.71h-1.33a.7.7 0 0 0-.7.7v4.4a4.11 4.11 0 0 1-4.12 4.12h-4.4a.7.7 0 0 0-.71.7v1.34c0 .39.32.7.7.7h4.4a4.11 4.11 0 0 1 4.12 4.11v4.4c0 .4.31.71.7.71h1.33c.4 0 .71-.31.71-.7v-4.4a4.11 4.11 0 0 1 4.11-4.12h4.4c.4 0 .71-.31.71-.7zm41.77 7.87v2.7h-8.7v-2.7h2.83V12.7H59v3.88h-3V10h17.33v6.6h-3V12.7h-4.14v14.56H69zm20.85 0v2.7h-8.64v-2.7h2.8V12.7h-2.8V10h8.64v2.71h-2.8v14.56h2.8zm19.93-11c-.05-2.36-.14-2.93-.37-3.16-.17-.17-.4-.26-1.25-.26h-5.14c-.88 0-1.08.06-1.28.26-.29.29-.4 1.11-.4 6.88 0 5.76.11 6.6.4 6.88.2.2.4.25 1.28.25h5.28c.8 0 1.08-.05 1.29-.25.22-.23.37-1.12.37-3.63v-1h-4.2v-2.62h7.3v3c0 4.4-.28 5.59-1.16 6.47-.66.66-1.52.89-3.11.89h-6.43c-1.7 0-2.36-.2-2.96-.8-1-1-1.37-2.46-1.37-9.2 0-6.73.37-8.18 1.37-9.18.6-.6 1.25-.8 2.96-.8h6.28c1.63 0 2.54.23 3.06.74.9.92 1.14 2 1.2 5.54h-3.12zm28.35 11h2.69v2.7h-8.43v-2.7h2.69v-6.34h-8.1v6.34h2.68v2.7h-8.42v-2.7h2.68V12.7h-2.68V10h8.42v2.71h-2.69v5.6h8.1v-5.6h-2.68V10h8.43v2.71h-2.69v14.56zm23.52 0v2.7h-8.7v-2.7h2.82V12.7h-4.14v3.88h-3V10h17.33v6.6h-3V12.7h-4.14v14.56h2.83zm12.12-14.56V10h15.63v6.02h-3v-3.3h-6.9v5.58h5.37v2.63h-5.37v6.34h7.14v-3.74h3v6.45h-15.87v-2.71h2.68V12.7h-2.68zm38.6 0h-2.67V10h8.18v2.71h-2.62v17.27h-3.65c-.83 0-1-.17-1.34-.95l-6.68-15.35h-.43v13.59h2.68v2.7h-8.24v-2.7h2.68V12.7h-2.68V10h6.62c.82 0 1 .17 1.34.94l6.39 14.67h.43v-12.9z"></path>
</svg>